<?xml version="1.0" encoding="utf-8"?>
<!-- Generator: Adobe Illustrator 24.0.1, SVG Export Plug-In . SVG Version: 6.00 Build 0)  -->
<svg version="1.1" xmlns="http://www.w3.org/2000/svg" xmlns:xlink="http://www.w3.org/1999/xlink" x="0px" y="0px"
	 viewBox="0 0 800 800" style="enable-background:new 0 0 800 800;" xml:space="preserve">
<style type="text/css">
	.st0{display:none;}
	.st1{opacity:0.5;}
	.st2{opacity:0;fill:#939598;}
	.st3{opacity:0.0152;fill:#929497;}
	.st4{opacity:0.0303;fill:#919396;}
	.st5{opacity:0.0455;fill:#909294;}
	.st6{opacity:0.0606;fill:#8F9193;}
	.st7{opacity:0.0758;fill:#8D8F92;}
	.st8{opacity:0.0909;fill:#8C8E91;}
	.st9{opacity:0.1061;fill:#8B8D90;}
	.st10{opacity:0.1212;fill:#8A8C8F;}
	.st11{opacity:0.1364;fill:#898B8D;}
	.st12{opacity:0.1515;fill:#888A8C;}
	.st13{opacity:0.1667;fill:#87888B;}
	.st14{opacity:0.1818;fill:#85878A;}
	.st15{opacity:0.197;fill:#848689;}
	.st16{opacity:0.2121;fill:#838588;}
	.st17{opacity:0.2273;fill:#828486;}
	.st18{opacity:0.2424;fill:#818385;}
	.st19{opacity:0.2576;fill:#808284;}
	.st20{opacity:0.2727;fill:#7F8083;}
	.st21{opacity:0.2879;fill:#7D7F82;}
	.st22{opacity:0.303;fill:#7C7E81;}
	.st23{opacity:0.3182;fill:#7B7D7F;}
	.st24{opacity:0.3333;fill:#7A7C7E;}
	.st25{opacity:0.3485;fill:#797B7D;}
	.st26{opacity:0.3636;fill:#78797C;}
	.st27{opacity:0.3788;fill:#77787B;}
	.st28{opacity:0.3939;fill:#757779;}
	.st29{opacity:0.4091;fill:#747678;}
	.st30{opacity:0.4242;fill:#737577;}
	.st31{opacity:0.4394;fill:#727376;}
	.st32{opacity:0.4545;fill:#717275;}
	.st33{opacity:0.4697;fill:#6F7173;}
	.st34{opacity:0.4848;fill:#6E7072;}
	.st35{opacity:0.5;fill:#6D6E71;}
	.st36{opacity:0.5152;fill:#6C6D70;}
	.st37{opacity:0.5303;fill:#6B6C6E;}
	.st38{opacity:0.5455;fill:#696B6D;}
	.st39{opacity:0.5606;fill:#68696C;}
	.st40{opacity:0.5758;fill:#67686B;}
	.st41{opacity:0.5909;fill:#666769;}
	.st42{opacity:0.6061;fill:#646668;}
	.st43{opacity:0.6212;fill:#636467;}
	.st44{opacity:0.6364;fill:#626365;}
	.st45{opacity:0.6515;fill:#616264;}
	.st46{opacity:0.6667;fill:#5F6063;}
	.st47{opacity:0.6818;fill:#5E5F61;}
	.st48{opacity:0.697;fill:#5D5E60;}
	.st49{opacity:0.7121;fill:#5B5C5F;}
	.st50{opacity:0.7273;fill:#5A5B5D;}
	.st51{opacity:0.7424;fill:#595A5C;}
	.st52{opacity:0.7576;fill:#57585A;}
	.st53{opacity:0.7727;fill:#565759;}
	.st54{opacity:0.7879;fill:#555557;}
	.st55{opacity:0.803;fill:#535456;}
	.st56{opacity:0.8182;fill:#525255;}
	.st57{opacity:0.8333;fill:#515153;}
	.st58{opacity:0.8485;fill:#4F5052;}
	.st59{opacity:0.8636;fill:#4E4E50;}
	.st60{opacity:0.8788;fill:#4C4D4F;}
	.st61{opacity:0.8939;fill:#4B4B4D;}
	.st62{opacity:0.9091;fill:#4A4A4C;}
	.st63{opacity:0.9242;fill:#48484A;}
	.st64{opacity:0.9394;fill:#474748;}
	.st65{opacity:0.9545;fill:#454547;}
	.st66{opacity:0.9697;fill:#444345;}
	.st67{opacity:0.9848;fill:#424244;}
	.st68{fill:#414042;}
	.st69{fill:url(#SVGID_1_);}
	.st70{fill:url(#SVGID_2_);}
	.st71{fill:url(#SVGID_3_);}
	.st72{fill:#1C1650;}
	.st73{fill:url(#SVGID_4_);}
	.st74{fill:url(#SVGID_5_);}
	.st75{fill-rule:evenodd;clip-rule:evenodd;fill:#7EC897;}
	.st76{fill-rule:evenodd;clip-rule:evenodd;fill:#414042;}
	.st77{fill:#7EC897;}
</style>
<g id="Layer_2" class="st0">
</g>
<g id="Layer_1">
	<g>
		<g class="st1">
			<path class="st2" d="M566.95,396.21c0,12-78.2,21.73-174.64,21.73c-96.45,0-174.64-9.73-174.64-21.73
				c0-12,78.19-21.73,174.64-21.73C488.75,374.48,566.95,384.21,566.95,396.21z"/>
			<path class="st3" d="M564.56,396.21c0,11.84-77.24,21.43-172.51,21.43c-95.27,0-172.51-9.6-172.51-21.43
				c0-11.84,77.24-21.43,172.51-21.43C487.32,374.78,564.56,384.37,564.56,396.21z"/>
			<path class="st4" d="M562.17,396.21c0,11.67-76.29,21.14-170.38,21.14c-94.1,0-170.38-9.46-170.38-21.14
				c0-11.67,76.29-21.14,170.38-21.14C485.88,375.07,562.17,384.54,562.17,396.21z"/>
			<path class="st5" d="M559.78,396.21c0,11.51-75.34,20.84-168.25,20.84c-92.92,0-168.25-9.33-168.25-20.84
				c0-11.51,75.33-20.84,168.25-20.84C484.44,375.37,559.78,384.7,559.78,396.21z"/>
			<path class="st6" d="M557.38,396.21c0,11.35-74.38,20.55-166.13,20.55c-91.75,0-166.13-9.2-166.13-20.55
				c0-11.35,74.38-20.55,166.13-20.55C483,375.66,557.38,384.86,557.38,396.21z"/>
			<path class="st7" d="M554.99,396.21c0,11.18-73.43,20.25-164,20.25c-90.57,0-164-9.07-164-20.25c0-11.18,73.43-20.25,164-20.25
				C481.56,375.96,554.99,385.03,554.99,396.21z"/>
			<path class="st8" d="M552.6,396.21c0,11.02-72.48,19.95-161.87,19.95c-89.39,0-161.87-8.93-161.87-19.95
				c0-11.02,72.47-19.96,161.87-19.96C480.12,376.25,552.6,385.19,552.6,396.21z"/>
			<path class="st9" d="M550.21,396.21c0,10.86-71.53,19.66-159.74,19.66c-88.22,0-159.74-8.8-159.74-19.66
				c0-10.86,71.52-19.66,159.74-19.66C478.68,376.55,550.21,385.35,550.21,396.21z"/>
			<path class="st10" d="M547.82,396.21c0,10.69-70.57,19.36-157.61,19.36c-87.04,0-157.61-8.67-157.61-19.36
				c0-10.69,70.57-19.36,157.61-19.36C477.24,376.85,547.82,385.52,547.82,396.21z"/>
			<path class="st11" d="M545.42,396.21c0,10.53-69.62,19.07-155.48,19.07c-85.87,0-155.48-8.54-155.48-19.07
				c0-10.53,69.61-19.07,155.48-19.07C475.8,377.14,545.42,385.68,545.42,396.21z"/>
			<path class="st12" d="M543.03,396.21c0,10.37-68.67,18.77-153.35,18.77c-84.69,0-153.35-8.4-153.35-18.77
				c0-10.37,68.66-18.77,153.35-18.77C474.37,377.44,543.03,385.84,543.03,396.21z"/>
			<path class="st13" d="M540.64,396.21c0,10.2-67.71,18.48-151.22,18.48c-83.52,0-151.22-8.27-151.22-18.48
				c0-10.2,67.71-18.48,151.22-18.48C472.93,377.73,540.64,386.01,540.64,396.21z"/>
			<path class="st14" d="M538.25,396.21c0,10.04-66.76,18.18-149.09,18.18c-82.34,0-149.1-8.14-149.1-18.18
				c0-10.04,66.75-18.18,149.1-18.18C471.49,378.03,538.25,386.17,538.25,396.21z"/>
			<path class="st15" d="M535.86,396.21c0,9.88-65.81,17.88-146.97,17.88c-81.17,0-146.97-8.01-146.97-17.88
				c0-9.88,65.8-17.89,146.97-17.89C470.05,378.32,535.86,386.33,535.86,396.21z"/>
			<path class="st16" d="M533.46,396.21c0,9.71-64.85,17.59-144.84,17.59c-79.99,0-144.84-7.88-144.84-17.59
				c0-9.71,64.85-17.59,144.84-17.59C468.61,378.62,533.46,386.5,533.46,396.21z"/>
			<path class="st17" d="M531.07,396.21c0,9.55-63.9,17.29-142.71,17.29c-78.81,0-142.71-7.74-142.71-17.29
				c0-9.55,63.9-17.29,142.71-17.29C467.17,378.92,531.07,386.66,531.07,396.21z"/>
			<path class="st18" d="M528.68,396.21c0,9.39-62.95,17-140.58,17c-77.64,0-140.58-7.61-140.58-17c0-9.39,62.94-17,140.58-17
				C465.73,379.21,528.68,386.82,528.68,396.21z"/>
			<path class="st19" d="M526.29,396.21c0,9.22-61.99,16.7-138.45,16.7c-76.46,0-138.45-7.48-138.45-16.7
				c0-9.22,61.99-16.7,138.45-16.7C464.29,379.51,526.29,386.99,526.29,396.21z"/>
			<path class="st20" d="M523.9,396.21c0,9.06-61.04,16.41-136.32,16.41c-75.29,0-136.32-7.34-136.32-16.41
				c0-9.06,61.04-16.41,136.32-16.41C462.86,379.8,523.9,387.15,523.9,396.21z"/>
			<path class="st21" d="M521.5,396.21c0,8.9-60.09,16.11-134.19,16.11c-74.11,0-134.19-7.21-134.19-16.11
				c0-8.9,60.08-16.11,134.19-16.11C461.42,380.1,521.5,387.31,521.5,396.21z"/>
			<path class="st22" d="M519.11,396.21c0,8.73-59.13,15.81-132.06,15.81c-72.94,0-132.07-7.08-132.07-15.81
				c0-8.73,59.13-15.81,132.07-15.81C459.98,380.4,519.11,387.48,519.11,396.21z"/>
			<path class="st23" d="M516.72,396.21c0,8.57-58.18,15.52-129.94,15.52c-71.76,0-129.94-6.95-129.94-15.52
				c0-8.57,58.18-15.52,129.94-15.52C458.54,380.69,516.72,387.64,516.72,396.21z"/>
			<path class="st24" d="M514.33,396.21c0,8.41-57.23,15.22-127.81,15.22c-70.58,0-127.81-6.81-127.81-15.22
				c0-8.41,57.22-15.22,127.81-15.22C457.1,380.99,514.33,387.8,514.33,396.21z"/>
			<path class="st25" d="M511.94,396.21c0,8.24-56.28,14.93-125.68,14.93c-69.41,0-125.68-6.68-125.68-14.93
				c0-8.24,56.27-14.93,125.68-14.93C455.66,381.28,511.94,387.97,511.94,396.21z"/>
			<path class="st26" d="M509.54,396.21c0,8.08-55.32,14.63-123.55,14.63c-68.23,0-123.55-6.55-123.55-14.63
				c0-8.08,55.32-14.63,123.55-14.63C454.22,381.58,509.54,388.13,509.54,396.21z"/>
			<ellipse class="st27" cx="385.73" cy="396.21" rx="121.42" ry="14.33"/>
			<path class="st28" d="M504.76,396.21c0,7.75-53.42,14.04-119.29,14.04c-65.88,0-119.29-6.29-119.29-14.04
				c0-7.75,53.41-14.04,119.29-14.04C451.34,382.17,504.76,388.46,504.76,396.21z"/>
			<path class="st29" d="M502.37,396.21c0,7.59-52.46,13.74-117.16,13.74c-64.71,0-117.16-6.15-117.16-13.74
				c0-7.59,52.46-13.74,117.16-13.74C449.91,382.47,502.37,388.62,502.37,396.21z"/>
			<path class="st30" d="M499.98,396.21c0,7.43-51.51,13.45-115.04,13.45c-63.53,0-115.04-6.02-115.04-13.45
				c0-7.43,51.5-13.45,115.04-13.45C448.47,382.76,499.98,388.78,499.98,396.21z"/>
			<path class="st31" d="M497.58,396.21c0,7.26-50.56,13.15-112.91,13.15c-62.36,0-112.91-5.89-112.91-13.15
				c0-7.26,50.55-13.15,112.91-13.15C447.03,383.06,497.58,388.95,497.58,396.21z"/>
			<path class="st32" d="M495.19,396.21c0,7.1-49.6,12.86-110.78,12.86c-61.18,0-110.78-5.75-110.78-12.86
				c0-7.1,49.6-12.86,110.78-12.86C445.59,383.35,495.19,389.11,495.19,396.21z"/>
			<path class="st33" d="M492.8,396.21c0,6.94-48.65,12.56-108.65,12.56c-60,0-108.65-5.62-108.65-12.56
				c0-6.94,48.65-12.56,108.65-12.56C444.15,383.65,492.8,389.27,492.8,396.21z"/>
			<path class="st34" d="M490.41,396.21c0,6.77-47.7,12.26-106.52,12.26c-58.83,0-106.52-5.49-106.52-12.26
				c0-6.77,47.69-12.26,106.52-12.26C442.71,383.95,490.41,389.44,490.41,396.21z"/>
			<path class="st35" d="M488.02,396.21c0,6.61-46.74,11.97-104.39,11.97c-57.65,0-104.39-5.36-104.39-11.97
				c0-6.61,46.74-11.97,104.39-11.97C441.27,384.24,488.02,389.6,488.02,396.21z"/>
			<path class="st36" d="M485.62,396.21c0,6.45-45.79,11.67-102.26,11.67c-56.48,0-102.26-5.23-102.26-11.67
				s45.79-11.67,102.26-11.67C439.83,384.54,485.62,389.76,485.62,396.21z"/>
			<path class="st37" d="M483.23,396.21c0,6.28-44.84,11.38-100.13,11.38c-55.3,0-100.13-5.09-100.13-11.38
				c0-6.28,44.83-11.38,100.13-11.38C438.39,384.83,483.23,389.93,483.23,396.21z"/>
			<path class="st38" d="M480.84,396.21c0,6.12-43.88,11.08-98,11.08c-54.13,0-98.01-4.96-98.01-11.08
				c0-6.12,43.88-11.08,98.01-11.08C436.96,385.13,480.84,390.09,480.84,396.21z"/>
			<path class="st39" d="M478.45,396.21c0,5.96-42.93,10.79-95.88,10.79c-52.95,0-95.88-4.83-95.88-10.79
				c0-5.96,42.93-10.79,95.88-10.79C435.52,385.42,478.45,390.25,478.45,396.21z"/>
			<path class="st40" d="M476.05,396.21c0,5.79-41.98,10.49-93.75,10.49c-51.77,0-93.75-4.7-93.75-10.49
				c0-5.79,41.97-10.49,93.75-10.49C434.08,385.72,476.05,390.42,476.05,396.21z"/>
			<path class="st41" d="M473.66,396.21c0,5.63-41.02,10.19-91.62,10.19c-50.6,0-91.62-4.56-91.62-10.19
				c0-5.63,41.02-10.19,91.62-10.19C432.64,386.02,473.66,390.58,473.66,396.21z"/>
			<ellipse class="st42" cx="381.78" cy="396.21" rx="89.49" ry="9.9"/>
			<path class="st43" d="M468.88,396.21c0,5.3-39.12,9.6-87.36,9.6c-48.25,0-87.36-4.3-87.36-9.6c0-5.3,39.11-9.6,87.36-9.6
				C429.76,386.61,468.88,390.91,468.88,396.21z"/>
			<path class="st44" d="M466.49,396.21c0,5.14-38.16,9.31-85.23,9.31c-47.07,0-85.23-4.17-85.23-9.31c0-5.14,38.16-9.31,85.23-9.31
				C428.32,386.9,466.49,391.07,466.49,396.21z"/>
			<path class="st45" d="M464.09,396.21c0,4.98-37.21,9.01-83.1,9.01c-45.9,0-83.1-4.03-83.1-9.01c0-4.98,37.21-9.01,83.1-9.01
				C426.88,387.2,464.09,391.23,464.09,396.21z"/>
			<path class="st46" d="M461.7,396.21c0,4.81-36.26,8.71-80.97,8.71c-44.72,0-80.98-3.9-80.98-8.71c0-4.81,36.26-8.71,80.98-8.71
				C425.44,387.5,461.7,391.4,461.7,396.21z"/>
			<ellipse class="st47" cx="380.46" cy="396.21" rx="78.85" ry="8.42"/>
			<path class="st48" d="M456.92,396.21c0,4.49-34.35,8.12-76.72,8.12c-42.37,0-76.72-3.64-76.72-8.12c0-4.49,34.35-8.12,76.72-8.12
				C422.57,388.09,456.92,391.72,456.92,396.21z"/>
			<path class="st49" d="M454.53,396.21c0,4.32-33.4,7.83-74.59,7.83c-41.19,0-74.59-3.5-74.59-7.83c0-4.32,33.4-7.83,74.59-7.83
				C421.13,388.38,454.53,391.89,454.53,396.21z"/>
			<path class="st50" d="M452.13,396.21c0,4.16-32.45,7.53-72.46,7.53c-40.02,0-72.46-3.37-72.46-7.53c0-4.16,32.44-7.53,72.46-7.53
				C419.69,388.68,452.13,392.05,452.13,396.21z"/>
			<path class="st51" d="M449.74,396.21c0,4-31.49,7.24-70.33,7.24c-38.84,0-70.33-3.24-70.33-7.24c0-4,31.49-7.24,70.33-7.24
				C418.25,388.97,449.74,392.21,449.74,396.21z"/>
			<path class="st52" d="M447.35,396.21c0,3.83-30.54,6.94-68.2,6.94c-37.67,0-68.2-3.11-68.2-6.94s30.54-6.94,68.2-6.94
				C416.81,389.27,447.35,392.38,447.35,396.21z"/>
			<path class="st53" d="M444.96,396.21c0,3.67-29.59,6.64-66.07,6.64c-36.49,0-66.07-2.97-66.07-6.64c0-3.67,29.58-6.64,66.07-6.64
				C415.37,389.57,444.96,392.54,444.96,396.21z"/>
			<path class="st54" d="M442.57,396.21c0,3.51-28.63,6.35-63.94,6.35c-35.32,0-63.95-2.84-63.95-6.35c0-3.51,28.63-6.35,63.95-6.35
				C413.93,389.86,442.57,392.7,442.57,396.21z"/>
			<path class="st55" d="M440.17,396.21c0,3.34-27.68,6.05-61.81,6.05c-34.14,0-61.82-2.71-61.82-6.05c0-3.34,27.68-6.05,61.82-6.05
				C412.5,390.16,440.17,392.87,440.17,396.21z"/>
			<path class="st56" d="M437.78,396.21c0,3.18-26.73,5.76-59.69,5.76c-32.96,0-59.69-2.58-59.69-5.76c0-3.18,26.72-5.76,59.69-5.76
				C411.06,390.45,437.78,393.03,437.78,396.21z"/>
			<path class="st57" d="M435.39,396.21c0,3.02-25.77,5.46-57.56,5.46c-31.79,0-57.56-2.44-57.56-5.46c0-3.02,25.77-5.46,57.56-5.46
				C409.62,390.75,435.39,393.19,435.39,396.21z"/>
			<path class="st58" d="M433,396.21c0,2.85-24.82,5.17-55.43,5.17c-30.61,0-55.43-2.31-55.43-5.17c0-2.85,24.82-5.17,55.43-5.17
				C408.18,391.04,433,393.36,433,396.21z"/>
			<path class="st59" d="M430.61,396.21c0,2.69-23.87,4.87-53.3,4.87c-29.44,0-53.3-2.18-53.3-4.87c0-2.69,23.86-4.87,53.3-4.87
				C406.74,391.34,430.61,393.52,430.61,396.21z"/>
			<path class="st60" d="M428.21,396.21c0,2.53-22.91,4.57-51.17,4.57c-28.26,0-51.17-2.05-51.17-4.57c0-2.53,22.91-4.57,51.17-4.57
				C405.3,391.64,428.21,393.68,428.21,396.21z"/>
			<path class="st61" d="M425.82,396.21c0,2.36-21.96,4.28-49.04,4.28c-27.09,0-49.04-1.91-49.04-4.28s21.96-4.28,49.04-4.28
				C403.86,391.93,425.82,393.85,425.82,396.21z"/>
			<path class="st62" d="M423.43,396.21c0,2.2-21.01,3.98-46.91,3.98c-25.91,0-46.92-1.78-46.92-3.98c0-2.2,21-3.98,46.92-3.98
				C402.42,392.23,423.43,394.01,423.43,396.21z"/>
			<path class="st63" d="M421.04,396.21c0,2.04-20.05,3.69-44.79,3.69c-24.74,0-44.79-1.65-44.79-3.69c0-2.04,20.05-3.69,44.79-3.69
				C400.98,392.52,421.04,394.17,421.04,396.21z"/>
			<path class="st64" d="M418.65,396.21c0,1.87-19.1,3.39-42.66,3.39c-23.56,0-42.66-1.52-42.66-3.39c0-1.87,19.1-3.39,42.66-3.39
				C399.54,392.82,418.65,394.34,418.65,396.21z"/>
			<path class="st65" d="M416.25,396.21c0,1.71-18.15,3.09-40.53,3.09c-22.38,0-40.53-1.38-40.53-3.09c0-1.71,18.15-3.09,40.53-3.09
				C398.11,393.11,416.25,394.5,416.25,396.21z"/>
			<path class="st66" d="M413.86,396.21c0,1.55-17.2,2.8-38.4,2.8c-21.21,0-38.4-1.25-38.4-2.8c0-1.55,17.19-2.8,38.4-2.8
				C396.67,393.41,413.86,394.66,413.86,396.21z"/>
			<path class="st67" d="M411.47,396.21c0,1.38-16.24,2.5-36.27,2.5c-20.03,0-36.27-1.12-36.27-2.5c0-1.38,16.24-2.5,36.27-2.5
				C395.23,393.71,411.47,394.83,411.47,396.21z"/>
			<path class="st68" d="M409.08,396.21c0,1.22-15.29,2.21-34.14,2.21c-18.86,0-34.14-0.99-34.14-2.21c0-1.22,15.29-2.21,34.14-2.21
				C393.79,394,409.08,394.99,409.08,396.21z"/>
		</g>
		<g>
			<g>
				
					<radialGradient id="SVGID_1_" cx="541.9825" cy="332.4086" r="35.874" gradientTransform="matrix(0.9637 0.2668 -0.2668 0.9637 -34.4018 -172.5798)" gradientUnits="userSpaceOnUse">
					<stop  offset="0" style="stop-color:#F1F2F2"/>
					<stop  offset="0.1415" style="stop-color:#EDEEEE"/>
					<stop  offset="0.3086" style="stop-color:#E1E2E3"/>
					<stop  offset="0.457" style="stop-color:#D1D3D4"/>
					<stop  offset="0.497" style="stop-color:#CBCDD3"/>
					<stop  offset="0.5529" style="stop-color:#BFC4D1"/>
					<stop  offset="0.618" style="stop-color:#ABB6CD"/>
					<stop  offset="0.6903" style="stop-color:#8DA3C8"/>
					<stop  offset="0.7683" style="stop-color:#678CC2"/>
					<stop  offset="0.85" style="stop-color:#2476BC"/>
					<stop  offset="0.8548" style="stop-color:#1B75BC"/>
					<stop  offset="1" style="stop-color:#DADBDD"/>
				</radialGradient>
				<path class="st69" d="M432.63,303.74c-5.18,18.72-24.6,29.71-43.38,24.51c-18.71-5.18-29.71-24.6-24.53-43.32
					c5.2-18.77,24.62-29.77,43.33-24.59c5.68,1.57,10.61,4.45,14.63,8.14c5.29,4.99,8.98,11.49,10.47,18.59
					C434.31,292.44,434.18,298.13,432.63,303.74z"/>
				
					<radialGradient id="SVGID_2_" cx="538.6213" cy="342.836" r="38.8213" gradientTransform="matrix(0.9637 0.2668 -0.2668 0.9637 -34.4018 -172.5798)" gradientUnits="userSpaceOnUse">
					<stop  offset="0" style="stop-color:#F1F2F2"/>
					<stop  offset="0.1415" style="stop-color:#EDEEEE"/>
					<stop  offset="0.3086" style="stop-color:#E1E2E3"/>
					<stop  offset="0.457" style="stop-color:#D1D3D4"/>
					<stop  offset="0.497" style="stop-color:#CBCDD3"/>
					<stop  offset="0.5529" style="stop-color:#BFC4D1"/>
					<stop  offset="0.618" style="stop-color:#ABB6CD"/>
					<stop  offset="0.6903" style="stop-color:#8DA3C8"/>
					<stop  offset="0.7683" style="stop-color:#678CC2"/>
					<stop  offset="0.85" style="stop-color:#2476BC"/>
					<stop  offset="0.8548" style="stop-color:#1B75BC"/>
					<stop  offset="1" style="stop-color:#DADBDD"/>
				</radialGradient>
				<path class="st70" d="M429.32,302.82c-4.68,16.9-22.2,26.82-39.15,22.13c-16.89-4.68-26.82-22.2-22.14-39.1
					c4.69-16.94,22.22-26.87,39.11-22.19c5.12,1.42,9.57,4.02,13.19,7.35c4.78,4.5,8.1,10.37,9.46,16.77
					C430.84,292.62,430.72,297.76,429.32,302.82z"/>
				
					<radialGradient id="SVGID_3_" cx="541.9679" cy="334.4394" r="33.4388" gradientTransform="matrix(0.9637 0.2668 -0.2668 0.9637 -34.4018 -172.5798)" gradientUnits="userSpaceOnUse">
					<stop  offset="0" style="stop-color:#BFDFEF"/>
					<stop  offset="0.1033" style="stop-color:#BBDEEF"/>
					<stop  offset="0.2254" style="stop-color:#AEDBF1"/>
					<stop  offset="0.3566" style="stop-color:#97D6F3"/>
					<stop  offset="0.457" style="stop-color:#7ED3F7"/>
					<stop  offset="0.5203" style="stop-color:#75C6EF"/>
					<stop  offset="0.6385" style="stop-color:#5CAADE"/>
					<stop  offset="0.7975" style="stop-color:#3283C5"/>
					<stop  offset="0.8548" style="stop-color:#1B75BC"/>
					<stop  offset="1" style="stop-color:#DADBDD"/>
				</radialGradient>
				<polygon class="st71" points="401.38,284.49 411.63,263.24 403.71,285.47 418.92,267.42 405.72,286.98 424.94,273.3 
					407.29,288.96 429.31,280.48 408.32,291.26 431.76,288.52 408.75,293.75 432.13,296.92 408.54,296.26 430.39,305.15 
					407.72,298.64 426.67,312.69 406.33,300.75 421.19,319.06 404.46,302.44 414.3,323.88 402.23,303.61 406.43,326.82 
					399.78,304.19 398.07,327.72 397.25,304.15 389.75,326.51 394.82,303.48 382,323.27 392.64,302.21 375.29,318.2 390.83,300.45 
					370.05,311.63 389.52,298.31 366.62,303.95 388.78,295.89 365.19,295.67 388.67,293.37 365.88,287.29 389.19,290.9 
					368.63,279.34 390.31,288.64 373.27,272.33 391.95,286.73 379.5,266.69 394.02,285.29 386.94,262.78 396.38,284.4 
					395.12,260.84 398.89,284.13 403.53,261 				"/>
				<path class="st72" d="M415.37,298.94c-2.56,9.24-12.11,14.64-21.33,12.09c-9.22-2.55-14.63-12.1-12.07-21.34
					c2.55-9.22,12.11-14.63,21.33-12.08C412.52,280.16,417.93,289.72,415.37,298.94z"/>
				
					<linearGradient id="SVGID_4_" gradientUnits="userSpaceOnUse" x1="533.1077" y1="340.4458" x2="524.4628" y2="358.4561" gradientTransform="matrix(0.9637 0.2668 -0.2668 0.9637 -34.4018 -172.5798)">
					<stop  offset="0" style="stop-color:#F1F2F2"/>
					<stop  offset="0.1415" style="stop-color:#EDEEEE"/>
					<stop  offset="0.3086" style="stop-color:#E1E2E3"/>
					<stop  offset="0.457" style="stop-color:#D1D3D4"/>
					<stop  offset="0.497" style="stop-color:#CBCDD3"/>
					<stop  offset="0.5529" style="stop-color:#BFC4D1"/>
					<stop  offset="0.618" style="stop-color:#ABB6CD"/>
					<stop  offset="0.6903" style="stop-color:#8DA3C8"/>
					<stop  offset="0.7683" style="stop-color:#678CC2"/>
					<stop  offset="0.85" style="stop-color:#2476BC"/>
					<stop  offset="0.8548" style="stop-color:#1B75BC"/>
					<stop  offset="1" style="stop-color:#DADBDD"/>
				</linearGradient>
				<path class="st73" d="M389.92,305.34c-0.99,3.57-4.69,5.66-8.25,4.67c-3.57-0.99-5.66-4.69-4.67-8.25
					c0.99-3.57,4.69-5.67,8.25-4.68C388.81,298.06,390.91,301.76,389.92,305.34z"/>
				
					<linearGradient id="SVGID_5_" gradientUnits="userSpaceOnUse" x1="547.7821" y1="329.5912" x2="571.0381" y2="304.6439" gradientTransform="matrix(0.9637 0.2668 -0.2668 0.9637 -34.4018 -172.5798)">
					<stop  offset="0" style="stop-color:#F1F2F2"/>
					<stop  offset="0.1415" style="stop-color:#EDEEEE"/>
					<stop  offset="0.3086" style="stop-color:#E1E2E3"/>
					<stop  offset="0.457" style="stop-color:#D1D3D4"/>
					<stop  offset="0.497" style="stop-color:#CBCDD3"/>
					<stop  offset="0.5529" style="stop-color:#BFC4D1"/>
					<stop  offset="0.618" style="stop-color:#ABB6CD"/>
					<stop  offset="0.6903" style="stop-color:#8DA3C8"/>
					<stop  offset="0.7683" style="stop-color:#678CC2"/>
					<stop  offset="0.85" style="stop-color:#2476BC"/>
					<stop  offset="0.8548" style="stop-color:#1B75BC"/>
					<stop  offset="1" style="stop-color:#DADBDD"/>
				</linearGradient>
				<path class="st74" d="M433.15,287.08c-2.75,5.15-8.8,7.89-14.65,6.27c-6.73-1.86-10.67-8.81-8.8-15.54
					c1.62-5.85,7.15-9.67,12.97-9.32C427.97,273.48,431.65,279.98,433.15,287.08z"/>
			</g>
			<path class="st75" d="M561.57,252.68c-77.51-84.47-209.45-57.34-249.25-21.39c0,0,100.4-45.98,142.29,70.38
				C497.17,419.87,633.95,331.55,561.57,252.68z"/>
			<path class="st76" d="M351.09,289.23c-25.86-71.82-86.49-67.39-113.87-35.17c28.36-29.8,86.36-32.05,111.52,37.77
				c40.03,111.1,129.24,74.84,142.11,69.49c0.85-0.79,1.21-1.37,2.49-2.74C493.35,358.58,392.98,405.59,351.09,289.23z"/>
			<path class="st75" d="M348.74,291.83c-42.55-118.2-179.34-29.88-106.95,48.99c77.52,84.47,209.42,56.32,249.21,20.37
				C491,361.19,390.64,408.19,348.74,291.83z"/>
			<path class="st76" d="M454.61,301.67c-41.89-116.36-142.29-70.38-142.29-70.38s-1.44,1.29-3.66,3.08c0,0,100.2-46.88,142.1,69.48
				c21.77,60.46,68.18,66.88,98.66,48.17C519,367.91,475.48,359.63,454.61,301.67z"/>
			<path class="st75" d="M418.33,370.19C418.33,370.19,418.33,370.19,418.33,370.19c-32.95-9.12-57.36-35.13-72.54-77.3
				c-13.19-36.62-33.87-49.27-48.9-53.43c-24.12-6.68-51.4,4.43-64.86,26.42c-13.72,22.42-9.21,49.64,12.06,72.82
				c20.95,22.83,47.24,38.75,78.13,47.3c0,0,0,0,0,0c56.46,15.63,115.78,2.91,149.31-15.27
				C457.72,373.85,438.46,375.76,418.33,370.19z"/>
			<path class="st75" d="M559.26,254.8c-20.95-22.83-47.24-38.75-78.13-47.3c-56.46-15.63-115.78-2.91-149.31,15.26
				c13.83-3.11,33.09-5.03,53.21,0.54c32.95,9.12,57.36,35.13,72.54,77.3c13.18,36.62,33.87,49.27,48.9,53.43c0,0,0,0,0.01,0
				c24.12,6.68,51.39-4.43,64.84-26.42C585.04,305.2,580.53,277.98,559.26,254.8z"/>
			<path class="st77" d="M418.33,370.19C418.33,370.19,418.33,370.19,418.33,370.19c-32.95-9.12-57.36-35.13-72.54-77.3
				c-6.61-18.38-15.12-30.72-23.85-38.98c-3.14,5.84-5.7,12.11-7.55,18.77c-13.34,48.18,14.9,98.05,63.08,111.39
				c25.41,7.03,51.28,2.5,72.02-10.42C439.84,374.02,429.22,373.2,418.33,370.19z"/>
			<path class="st77" d="M425.78,209.6c-25.29-7-51.03-2.53-71.72,10.24c9.6-0.35,20.16,0.47,30.97,3.46
				c32.95,9.12,57.36,35.13,72.54,77.3c6.61,18.37,15.12,30.71,23.84,38.97c3.09-5.79,5.63-11.99,7.45-18.58
				C502.2,272.81,473.96,222.94,425.78,209.6z"/>
		</g>
	</g>
</g>
</svg>
